<svg xmlns="http://www.w3.org/2000/svg" preserveAspectRatio=”xMinYMin meet” viewBox="0 0 600 75"><title>  Page 1</title><desc>  Created with Sketch.</desc><defs><polygon id="path-1" points="0 0 600 0 600 75 0 75"/></defs><g id="v1-desktop" fill="none"><g id="brooklynrail-logo" transform="translate(-280 -46)translate(280 46)"><mask id="mask-2" fill="white"><use xlink:href="#path-1"/></mask><path d="M44.2 11.3L0 11.3 0 20.2 44.2 20.2 44.2 73.9 53.3 73.9 53.3 1.1 44.2 1.1 44.2 11.3ZM0 73.9L7.3 73.9 7.3 61.4 18.1 61.4 18.1 72.3 25.4 72.3 25.4 61.4 32.2 61.4 32.2 73.9 39.5 73.9 39.5 54.1 0 54.1 0 73.9ZM0 33.2L18.1 33.2 18.1 41.1 0 41.1 0 48.4 39.5 48.4 39.5 41.1 25.4 41.1 25.4 33.2 39.5 33.2 39.5 25.9 0 25.9 0 33.2ZM95.2 35.8C100.5 34.4 103.8 29.6 103.8 23.9L103.9 15.7C103.9 5.4 95.9 1.1 89.2 1.1L64.6 1.1 64.6 73.9 92.3 73.9C100.1 73.9 104.6 66.3 104.6 59.6L104.6 48C104.6 41.9 100.9 36.8 95.2 35.8ZM77.7 14.6L85.8 14.6C88.1 14.6 89.9 16.3 89.9 18.4L89.8 26.5C89.7 28.5 87.9 30.1 85.8 30.1L77.7 30.1 77.7 14.6ZM90.1 56.8L90.1 56.8C89.9 58.8 88.6 61 85.9 61L77.7 61 77.7 42.8 84.7 42.8C88.6 42.8 90.1 44.2 90.1 47.6L90.1 56.8ZM150.5 23.5L150.5 15.3C150.5 5 142.6 1.1 136 1.1L110 1.1 110 73.9 124.4 73.9 124.4 42.9 130.1 42.9C133.9 42.9 136.1 44.3 136.1 47.7L136.1 73.9 150.5 73.9 150.5 47.3C150.4 37.5 142.7 35.7 142 35.7 146.8 35.7 150.4 29.2 150.5 23.5ZM136.2 26.6C136.1 28.6 133.6 30.2 131.5 30.2L124.4 30.2 124.4 14 132.2 14C135.3 14 136.2 15.7 136.2 17.8L136.2 26.6ZM485 23.5L485 15.3C485 5 477.2 1.1 470.6 1.1L443.9 1.1 443.9 73.9 459 73.9 459 42.9 464.7 42.9C468.5 42.9 470.7 44.3 470.7 47.7L470.7 73.9 485 73.9 485 47.3C485 37.5 477.3 35.7 476.5 35.7 481.4 35.7 485 29.2 485 23.5ZM470.8 26.6C470.6 28.6 468.2 30.2 466.1 30.2L459 30.2 459 14 466.7 14C469.9 14 470.8 15.7 470.8 17.8L470.8 26.6ZM296.9 1.1L280.4 1.1 268 33.4 268 1.1 251.8 1.1 251.8 73.9 268 73.9 268 39.2 281.7 73.9 298.7 73.9 283.7 36.3 296.9 1.1ZM318.1 1.1L301.2 1.1 301.2 73.9 335.1 73.9 335.1 59.6 318.1 59.6 318.1 1.1ZM583 59.6L583 1.1 566.1 1.1 566.1 73.9 600 73.9 600 59.6 583 59.6ZM351.6 31.3L343.4 1.1 327.1 1.1 343.4 47.2 343.4 73.9 359.7 73.9 359.7 47.3 376 1.1 359.7 1.1 351.6 31.3ZM407.9 45.9L394 1.1 377.5 1.1 377.5 73.9 391.4 73.9 391.4 29.4 405.5 73.9 423 73.9 423 1.1 407.9 1.1 407.9 45.9ZM501.3 1.1L488.5 73.9 504.1 73.9 506.3 56.4 519.4 56.4 521.3 73.9 537.5 73.9 523.8 1.1 501.3 1.1ZM507.9 41.9L511.1 14.7 514.7 14.7 517.9 41.9 507.9 41.9ZM541.8 1.1L541.8 73.9 558 73.9 558 1.1 541.8 1.1ZM183.7 0L169.7 0C162.1 0 155.9 7 155.9 15.3L155.9 59.6C155.9 67.5 162.1 75 169.7 75L183.7 75C191.3 75 197.5 67.5 197.5 59.6L197.5 15.3C197.5 7.4 191.3 0 183.7 0ZM183.1 58C183.1 60.2 182.1 62.1 179.4 62.1L175.3 62.1C172.4 62.1 171.5 60.5 171.5 58L171.5 17.7C171.5 15.4 172.6 13.6 175.3 13.6L179.4 13.6C182.8 13.6 183.1 15.8 183.1 17.7L183.1 58ZM231.1 0L217 0C209.4 0 203.2 7 203.2 15.3L203.2 59.6C203.2 67.5 209.4 75 217 75L231.1 75C238.7 75 244.9 67.5 244.9 59.6L244.9 15.3C244.9 7.4 238.7 0 231.1 0ZM229.1 58C229.1 60.2 228.1 62.1 225.4 62.1L221.3 62.1C218.4 62.1 217.5 60.5 217.5 58L217.5 17.7C217.5 15.4 218.6 13.6 221.3 13.6L225.4 13.6C228.8 13.6 229.1 15.8 229.1 17.7L229.1 58Z" id="Fill-1" mask="url(#mask-2)" fill="#231F20"/></g></g></svg>
