<svg xmlns="http://www.w3.org/2000/svg" xmlns:xlink="http://www.w3.org/1999/xlink" width="377" height="377" version="1.1" viewBox="0 0 377 377"><title>btn copy 28</title><desc>Created with Sketch.</desc><defs><circle id="path-1" cx="177" cy="177" r="177"/></defs><g id="Page-1" fill="none" fill-rule="evenodd" stroke="none" stroke-width="1"><g id="btn-copy-28"><circle id="Oval" cx="188.5" cy="188.5" r="188.5" fill="#FFB700"/><g id="Gay_Pride_Flag" transform="translate(12.000000, 12.000000)"><mask id="mask-2" fill="#fff"><use xlink:href="#path-1"/></mask><use id="Mask" fill="#C78080" xlink:href="#path-1"/><g id="Group" mask="url(#mask-2)"><g transform="translate(179.857143, 165.616883) rotate(-360.000000) translate(-179.857143, -165.616883) translate(-101.142857, -29.883117)"><g id="Gay_Pride_Flag" transform="translate(-0.000000, 0.000000)"><rect id="Rectangle" width="280.442" height="319.519" x="0" y="71.26" fill="#750787" fill-rule="nonzero"/><rect id="Rectangle" width="280.442" height="226.78" x="0" y="71.26" fill="#004DFF" fill-rule="nonzero"/><rect id="Rectangle" width="280.442" height="180.09" x="0" y="71.26" fill="#008026" fill-rule="nonzero"/><rect id="Rectangle" width="280.442" height="135.623" x="0" y="71.26" fill="#FFED00" fill-rule="nonzero"/><rect id="Rectangle" width="280.442" height="91.157" x="0" y="71.26" fill="#FF8C00" fill-rule="nonzero"/><rect id="Rectangle" width="280.442" height="114.935" x="0" y=".791" fill="#E40303" fill-rule="nonzero"/></g><g id="Transgender_Pride_flag" transform="translate(280.441558, -0.000000)"><polygon id="Path" fill="#5BCEFA" fill-rule="nonzero" points="0 0 280.442 0 280.442 390.779 0 390.779"/><polygon id="Path" fill="#F5A9B8" fill-rule="nonzero" points="0 126.843 280.442 126.843 280.442 289.146 0 289.146"/><polygon id="Path" fill="#FFF" fill-rule="nonzero" points="0 177.98 280.442 177.98 280.442 233.563 0 233.563"/></g></g></g></g><circle id="circle" cx="188.5" cy="188.5" r="96.5" fill="#000"/><g id="BR" fill="#FFF" transform="translate(127.000000, 136.000000)"><path id="R" d="M102.333716,41.3733373 C102.333716,46.1319888 99.6067297,48.2348005 96.3112783,48.2348005 L86.4364582,48.2348005 L86.4414014,17.4348894 L96.1695739,17.4348894 C100.564058,17.4348894 102.337011,20.0303692 102.337011,23.9733451 L102.333716,41.3733373 Z M123.563014,36.3553009 L123.563014,22.3403625 C123.563014,5.48361031 117.69711,0.201295045 102.353488,0.201295045 L66.4363636,0.201295045 L66.4363636,107.909628 L86.3771401,107.909628 L86.3771401,64.8680576 L94.4427574,64.8729517 C99.9379226,64.8729517 102.404568,68.4586617 102.404568,73.2189446 L102.404568,107.909628 L126,107.909628 C126,107.909628 123.558071,105.470758 123.558071,100.067723 C123.558071,94.6630564 123.558071,72.5044127 123.558071,72.5044127 C123.558071,55.171306 112.070127,55.1354162 110.941435,55.1354162 C116.848531,55.1354162 123.563014,50.6850901 123.563014,36.3553009 L123.563014,36.3553009 Z"/><path id="B" d="M34.0960068,107.909628 C50.4163882,107.909628 59.5636364,102.819813 59.5636364,89.5650838 L59.5636364,68.5141276 C59.5636364,50.3653452 47.3340885,48.4680838 46.1588974,48.4680838 C52.1173228,48.4680838 58.7922024,43.8937749 58.5774379,30.7352959 L58.5774379,22.3403625 C58.5774379,5.48361031 51.275446,0.201295045 32.0995563,0.201295045 L0,0.201295045 L0,107.909628 L34.0960068,107.909628 Z M20.7926366,58.1844117 L29.2028132,58.1844117 C31.5188332,58.1844117 38.9892004,58.1827803 38.9892004,66.3395364 C38.9892004,66.3395364 38.9892004,75.2287693 38.9892004,83.8553546 C38.9892004,90.9321562 29.8814689,90.9859908 28.9158879,90.9859908 C22.3045785,90.9859908 20.6380062,90.9859908 20.6380062,90.9859908 L20.7926366,58.1844117 Z M36.1302558,36.3960847 C36.1302558,39.0470304 33.5582366,40.6229157 29.5223827,40.6229157 L20.7926366,40.6229157 L20.7960729,17.4479402 L29.585953,17.4479402 C34.7403002,17.4479402 36.1354102,19.3158374 36.1354102,22.0695582 L36.1302558,36.3960847 L36.1302558,36.3960847 Z"/></g></g></g></svg>