<?xml version="1.0" encoding="UTF-8"?>
<svg width="600px" height="75px" viewBox="0 0 600 75" version="1.1" xmlns="http://www.w3.org/2000/svg" xmlns:xlink="http://www.w3.org/1999/xlink">
    <!-- Generator: Sketch 48.2 (47327) - http://www.bohemiancoding.com/sketch -->
    <title>Page 1</title>
    <desc>Created with Sketch.</desc>
    <defs>
        <polygon id="path-1" points="0 0 599.973466 0 599.973466 74.9966832 0 74.9966832"></polygon>
    </defs>
    <g id="v1-desktop" stroke="none" stroke-width="1" fill="none" fill-rule="evenodd" transform="translate(-280.000000, -46.000000)">
        <g id="Page-1" transform="translate(280.000000, 46.000000)">
            <mask id="mask-2" fill="white">
                <use xlink:href="#path-1"></use>
            </mask>
            <g id="Clip-2"></g>
            <path d="M44.1557395,11.3109752 L0.00346138538,11.3109752 L0.00346138538,20.1641971 L44.1557395,20.1641971 L44.1522781,73.9103771 L53.2880279,73.9103771 L53.2880279,1.08053406 L44.1557395,1.08053406 L44.1557395,11.3109752 Z M0,73.9103771 L7.30583074,73.9103771 L7.30583074,61.4161248 L18.1203525,61.4161248 L18.1226601,72.2861127 L25.4250294,72.2861127 L25.4250294,61.4161248 L32.1747309,61.4161248 L32.1747309,73.9103771 L39.4805616,73.9103771 L39.4805616,54.1040492 L0,54.1040492 L0,73.9103771 Z M0.00346138538,33.2102607 L18.1226601,33.2102607 L18.1226601,41.1191697 L0,41.1191697 L0.00346138538,48.42201 L39.4805616,48.42201 L39.4805616,41.1157065 L25.4284908,41.1191697 L25.4284908,33.2102607 L39.4805616,33.2102607 L39.4805616,25.9051116 L0.00346138538,25.9051116 L0.00346138538,33.2102607 Z M95.1777138,35.770757 C100.486325,34.4270159 103.755027,29.6315688 103.841561,23.8756469 L103.863484,15.6931411 C103.863484,5.42229541 95.8572991,1.08053406 89.2310537,1.08053406 L64.5836822,1.08053406 L64.5836822,73.9126859 L92.332455,73.9126859 C100.088266,73.9126859 104.554607,66.2831457 104.606528,59.6464039 L104.606528,48.0271995 C104.606528,41.912254 100.933998,36.8362836 95.1777138,35.770757 Z M77.7092556,14.5595039 L85.8077436,14.5629671 C88.0518751,14.5629671 89.8725638,16.2922834 89.8702562,18.4291088 L89.8391037,26.5134892 C89.6844952,28.5071669 87.9468797,30.0887178 85.8077436,30.0887178 L77.7092556,30.0887178 L77.7092556,14.5595039 Z M90.1171684,56.7811416 L90.0860159,56.7811416 C89.927946,58.7794369 88.632234,61.0236231 85.8977396,61.0213142 L77.7092556,61.021316 L77.7092556,42.8357874 L84.7150996,42.8357874 C88.5641601,42.8357874 90.119476,44.2187786 90.119476,47.5885211 L90.1171684,56.7811416 Z M150.465269,23.4739099 L150.462961,15.2914041 C150.462961,5.01824955 142.639076,1.08053406 136.00937,1.08053406 L109.986674,1.08053406 L109.983213,73.9126859 L124.429882,73.9126859 L124.429882,42.931604 L130.074247,42.9350672 C133.926769,42.9350672 136.148979,44.3180585 136.148979,47.6866465 L136.148979,73.9126859 L150.462961,73.9126859 L150.4595,47.2791374 C150.422578,37.4839114 142.749841,35.7211171 141.959491,35.7211171 C146.792739,35.7211171 150.382195,29.2240597 150.465269,23.4739099 Z M136.226283,26.5689012 C136.068213,28.5637333 133.626783,30.1718358 131.4888,30.1718358 L124.429882,30.1718358 L124.429882,13.9730602 L132.16377,13.9730602 C135.277863,13.9730602 136.228591,15.7300824 136.226283,17.8392018 L136.226283,26.5689012 Z M485.043933,23.4739099 L485.040472,15.2914041 C485.040472,5.01824955 477.216587,1.08053406 470.588034,1.08053406 L443.888061,1.08053406 L443.888061,73.9126859 L459.005085,73.9126859 L459.005085,42.931604 L464.652912,42.9350672 C468.500819,42.9350672 470.72649,44.3180585 470.72649,47.6866465 L470.72649,73.9126859 L485.040472,73.9126859 L485.040472,47.2791374 C485.000089,37.4839114 477.327352,35.7211171 476.538156,35.7211171 C481.371403,35.7211171 484.959706,29.2240597 485.043933,23.4739099 Z M470.800332,26.5689012 C470.645724,28.5637333 468.201986,30.1718358 466.066311,30.1718358 L459.005085,30.1718358 L459.007393,13.9730602 L466.738974,13.9730602 C469.856528,13.9730602 470.803794,15.7300824 470.803794,17.8392018 L470.800332,26.5689012 Z M296.918792,1.08053406 L280.380292,1.08053406 L268.025454,33.4480705 L268.025454,1.08053406 L251.776557,1.08053406 L251.776557,73.9126859 L268.028916,73.9161492 L268.031223,39.194757 L281.716387,73.9126859 L298.700251,73.9161492 L283.673224,36.2613841 L296.918792,1.08053406 Z M318.090932,1.08053406 L301.218986,1.08053406 L301.215525,73.9161492 L335.10018,73.9126859 L335.10018,59.6371686 L318.088625,59.6371686 L318.090932,1.08053406 Z M582.961911,59.6371686 L582.965372,1.08053406 L566.092272,1.08053406 L566.089964,73.9161492 L599.973466,73.9126859 L599.973466,59.6371686 L582.961911,59.6371686 Z M351.552145,31.2835391 L343.392506,1.08053406 L327.084765,1.08053406 L343.395967,47.2479682 L343.392506,73.9126859 L359.707169,73.9126859 L359.709476,47.2514314 L376.024139,1.08053406 L359.709476,1.08053406 L351.552145,31.2835391 Z M407.941574,45.9480949 L394.016421,1.08053406 L377.51715,1.08053406 L377.514843,73.9126859 L391.356923,73.9126859 L391.356923,29.3510455 L405.466683,73.9126859 L423.006677,73.9126859 L423.008985,1.08053406 L407.945035,1.08053406 L407.941574,45.9480949 Z M501.277831,1.08053406 L488.539933,73.9126859 L504.117321,73.9126859 L506.314146,56.3828678 L519.387799,56.3828678 L521.344636,73.9126859 L537.479307,73.9126859 L523.801065,1.08053406 L501.277831,1.08053406 Z M507.906384,41.8810848 L511.119703,14.7419017 L514.705698,14.7419017 L517.921325,41.8787759 L507.906384,41.8810848 Z M541.772578,1.08053406 L541.7945,73.9253845 L557.993784,73.9196124 L557.969554,1.08053406 L541.772578,1.08053406 Z M183.717644,0 L169.687495,0 C162.073601,0 155.888106,7.01885375 155.888106,15.313338 L155.888106,59.5667491 C155.888106,67.4929745 162.07014,74.99322 169.684034,74.99322 L183.714183,74.9966832 C191.333846,74.99322 197.513573,67.4929745 197.513573,59.5667491 L197.513573,15.3098747 C197.513573,7.38942153 191.337307,0 183.717644,0 Z M183.124594,58.0406102 C183.124594,60.1901342 182.068871,62.0856865 179.40245,62.0856865 L175.267249,62.0891497 C172.433528,62.0856865 171.545106,60.45565 171.548567,58.0383014 L171.548567,17.6510319 C171.545106,15.3872207 172.569676,13.5990291 175.267249,13.5990291 L179.405912,13.5990291 C182.818838,13.5990291 183.128055,15.7912665 183.124594,17.6533407 L183.124594,58.0406102 Z M231.054397,0 L217.024248,0 C209.408047,0 203.226012,7.022317 203.226012,15.3098747 L203.226012,59.5667491 C203.226012,67.4929745 209.404585,74.99322 217.024248,74.9966832 L231.052089,74.99322 C238.671752,74.99322 244.850325,67.4929745 244.850325,59.569058 L244.850325,15.313338 C244.850325,7.38942153 238.671752,0 231.054397,0 Z M229.113713,58.0406102 C229.113713,60.1935974 228.057991,62.0891497 225.39157,62.0856865 L221.256369,62.0891497 C218.422648,62.0856865 217.534226,60.45565 217.536533,58.0383014 L217.534226,17.6533407 C217.534226,15.3872207 218.561103,13.6024924 221.256369,13.5990291 L225.39157,13.5990291 C228.807958,13.6024924 229.113713,15.7947298 229.113713,17.656804 L229.113713,58.0406102 Z" id="Fill-1" fill="#231F20" mask="url(#mask-2)"></path>
        </g>
    </g>
</svg>